<?xml version="1.0" encoding="utf-8"?>
<!-- Generator: Adobe Illustrator 22.0.1, SVG Export Plug-In . SVG Version: 6.00 Build 0)  -->
<svg version="1.1" id="Layer_1" xmlns="http://www.w3.org/2000/svg" xmlns:xlink="http://www.w3.org/1999/xlink" x="0px" y="0px"
	 viewBox="0 0 350 100" style="enable-background:new 0 0 350 100;" xml:space="preserve">
<style type="text/css">
	.st0{fill:#197DF5;}
</style>
<path class="st0" d="M72.9,60c0,3.8-3.1,7.1-7.1,7.1c-3.9,0-7.1-3.1-7.1-7.1c0-3.2,2.3-6,5.3-6.8V33.3c0-3.4-2.7-6.1-6.1-6.1
	s-6.1,2.7-6.1,6.1v33.4c0,5.3-4.3,9.6-9.7,9.6s-9.7-4.3-9.7-9.7V55.4l-2.2,2.2c-0.7,0.7-1.8,0.7-2.5,0s-0.7-1.8,0-2.5l0,0l5.3-5.3
	c0.7-0.7,1.8-0.7,2.5,0l0,0l5.3,5.3c0.3,0.3,0.5,0.8,0.5,1.3c0,0.9-0.8,1.8-1.8,1.8c-0.5,0-0.9-0.2-1.3-0.5l-2.3-2.3v11.3
	c0,3.4,2.7,6.1,6.1,6.1c3.4,0,6.1-2.7,6.1-6.1V33.3c0.1-5.4,4.4-9.7,9.8-9.7s9.7,4.3,9.7,9.7v19.9C70.6,54,72.9,56.7,72.9,60z
	 M69.3,60c0-2-1.5-3.5-3.5-3.5S62.3,58,62.3,60s1.5,3.5,3.5,3.5C67.8,63.4,69.3,61.9,69.3,60z M41.2,40c0,3.8-3.1,7.1-7.1,7.1
	s-7-3.1-7-7.1s3.1-7.1,7.1-7.1S41.2,36.1,41.2,40z M37.7,40c0-2-1.5-3.5-3.5-3.5S30.7,38,30.7,40s1.5,3.5,3.5,3.5S37.7,42,37.7,40z"
	/>
<path class="st0" d="M50,90c-22,0-40-18-40-40s18-40,40-40s40,18,40,40S72,90,50,90z M50,13.4c-20.2,0-36.6,16.4-36.6,36.6
	S29.8,86.6,50,86.6S86.6,70.2,86.6,50S70.2,13.4,50,13.4z"/>
<g>
	<path class="st0" d="M111.5,31.6h14.9c8.8,0,14.4,5,14.4,12.6v0.1c0,8.5-6.8,12.9-15.1,12.9h-7.5v12.2h-6.6V31.6H111.5z
		 M125.8,51.2c5,0,8.2-2.8,8.2-6.8v-0.1c0-4.4-3.2-6.8-8.2-6.8h-7.7v13.6L125.8,51.2L125.8,51.2z"/>
	<path class="st0" d="M161,69.4v-3.5c-1.9,2.3-4.9,4.1-9.2,4.1c-5.4,0-10.2-3.1-10.2-8.8v-0.1c0-6.3,4.9-9.3,11.6-9.3
		c3.5,0,5.7,0.5,7.9,1.2v-0.5c0-3.9-2.5-6.1-7-6.1c-3.2,0-5.6,0.7-8.2,1.8l-1.8-5.2c3.1-1.4,6.2-2.4,10.9-2.4
		c8.4,0,12.5,4.4,12.5,12v16.9L161,69.4L161,69.4z M161.1,57.5c-1.7-0.6-4-1.1-6.5-1.1c-4.1,0-6.5,1.7-6.5,4.4v0.1
		c0,2.7,2.4,4.2,5.5,4.2c4.3,0,7.6-2.4,7.6-6v-1.6H161.1z"/>
	<path class="st0" d="M173.6,61.5v-15H170v-5.6h3.6V33h6.5v7.8h7.7v5.6h-7.7v14c0,2.5,1.3,3.6,3.5,3.6c1.5,0,2.8-0.3,4-1v5.3
		c-1.6,0.9-3.5,1.5-5.9,1.5C177,69.9,173.6,67.8,173.6,61.5z"/>
	<path class="st0" d="M191.7,30h6.5v15.3c1.8-2.7,4.5-5,8.9-5c6.4,0,10.2,4.3,10.2,11v18.1h-6.5V53.2c0-4.4-2.2-7-6.1-7
		c-3.8,0-6.4,2.6-6.4,7.1v16.1h-6.5L191.7,30L191.7,30z"/>
	<path class="st0" d="M219.3,40.9h6.7l5.7,19.5l6.3-19.7h5.6l6.4,19.7l5.8-19.5h6.5L253,69.6h-5.8l-6.4-19.5l-6.4,19.5h-5.8
		L219.3,40.9z"/>
	<path class="st0" d="M265.6,30.3h7v6.2h-7V30.3z M265.8,40.9h6.5v28.5h-6.5V40.9z"/>
	<path class="st0" d="M275.9,65.7l2.9-4.4c3.1,2.3,6.4,3.5,9.3,3.5c2.8,0,4.4-1.2,4.4-3.1v-0.1c0-2.2-3-3-6.4-4
		c-4.2-1.2-8.9-2.9-8.9-8.4v-0.1c0-5.4,4.5-8.7,10.2-8.7c3.6,0,7.5,1.2,10.5,3.2l-2.6,4.6c-2.8-1.7-5.7-2.7-8-2.7
		c-2.5,0-4,1.2-4,2.9v0.1c0,2.1,3.1,2.9,6.4,4c4.2,1.3,8.9,3.2,8.9,8.3V61c0,6-4.6,9-10.6,9C283.9,69.9,279.5,68.5,275.9,65.7z"/>
	<path class="st0" d="M300.9,55.2L300.9,55.2c0-8.3,5.8-15,13.9-15c9.1,0,13.7,7.1,13.7,15.3c0,0.6-0.1,1.2-0.1,1.8h-21
		c0.7,4.6,4,7.2,8.2,7.2c3.2,0,5.5-1.2,7.7-3.4l3.8,3.4c-2.7,3.2-6.4,5.3-11.7,5.3C307.3,70,300.9,64,300.9,55.2z M322.1,53.1
		c-0.4-4.2-2.9-7.5-7.2-7.5c-4,0-6.8,3.1-7.4,7.5H322.1z"/>
</g>
</svg>
