<?xml version="1.0" encoding="utf-8"?>
<!-- Generator: Adobe Illustrator 22.0.1, SVG Export Plug-In . SVG Version: 6.00 Build 0)  -->
<svg version="1.1" id="Layer_1" xmlns="http://www.w3.org/2000/svg" xmlns:xlink="http://www.w3.org/1999/xlink" x="0px" y="0px"
	 viewBox="0 0 80 80" style="enable-background:new 0 0 80 80;" xml:space="preserve">
<style type="text/css">
	.st0{fill:#197DF5;}
</style>
<g>
	<path class="st0" d="M22.2,37.9c-1.1,0-2,0.9-2,2s0.9,2,2,2h5.9c1.1,0,2-0.9,2-2s-0.9-2-2-2H22.2z"/>
	<path class="st0" d="M73,16.2c-7-7-21.4-3.8-32.2,7l-8.4,8.4c-0.4,0.4-0.6,0.9-0.6,1.4v10.4l-2.5,2.5h-7.3c-1.1,0-2,0.9-2,2
		s0.9,2,2,2h3.3h4.6h1l6.4-6.4h10.4c0.5,0,1-0.2,1.4-0.6L73,19C73.8,18.2,73.8,16.9,73,16.2z M41.7,27.9v5.6l-2.2,2.2l-3.6,3.6l0,0
		v-5.6L41.7,27.9z M42.2,38.6l11.2-11.2c0.8-0.8,0.8-2,0-2.8s-2-0.8-2.8,0l-5,5v-5.5c8.1-7.1,17.6-9.7,23-6.4L47,39.4h-5.6
		L42.2,38.6z"/>
	<path class="st0" d="M53.8,57.7h-9.9v-9.9c0-1.1-0.9-2-2-2s-2,0.9-2,2v9.9H26.1c-1.1,0-2,0.9-2,2v2c0,2.2-1.8,4-4,4s-4-1.8-4-4
		V33.9c0-1.4-0.4-2.8-1.1-4h14.9c1.1,0,2-0.9,2-2s-0.9-2-2-2H8.3c-4.4,0-7.9,3.5-7.9,7.9v2c0,1.1,0.9,2,2,2h9.9v23.8
		c0,4.4,3.5,7.9,7.9,7.9h27.7c4.4,0,7.9-3.5,7.9-7.9v-2C55.8,58.6,54.9,57.7,53.8,57.7z M4.3,33.9c0-2.2,1.8-4,4-4s4,1.8,4,4H4.3z
		 M47.9,65.6H27c0.7-1.2,1.1-2.5,1.1-4H40h4h7.9C51.8,63.8,50.1,65.6,47.9,65.6z"/>
</g>
</svg>
