<?xml version="1.0" encoding="utf-8"?>
<!-- Generator: Adobe Illustrator 22.0.1, SVG Export Plug-In . SVG Version: 6.00 Build 0)  -->
<svg version="1.1" id="Layer_1" xmlns="http://www.w3.org/2000/svg" xmlns:xlink="http://www.w3.org/1999/xlink" x="0px" y="0px"
	 viewBox="0 0 60 60" style="enable-background:new 0 0 60 60;" xml:space="preserve">
<style type="text/css">
	.st0{fill:#237DEB;}
</style>
<g>
	<path class="st0" d="M14,26c3.3,0,6-2.7,6-6s-2.7-6-6-6s-6,2.7-6,6S10.7,26,14,26z M14,16c2.2,0,4,1.8,4,4s-1.8,4-4,4s-4-1.8-4-4
		S11.8,16,14,16z"/>
	<path class="st0" d="M46,26c3.3,0,6-2.7,6-6s-2.7-6-6-6s-6,2.7-6,6S42.7,26,46,26z M46,16c2.2,0,4,1.8,4,4s-1.8,4-4,4s-4-1.8-4-4
		S43.8,16,46,16z"/>
	<path class="st0" d="M56,28v13c0,1.7-1.3,3-3,3V33c0-2.8-2.2-5-5-5h-5c-0.6,0-1,0.4-1,1v4v1v1h-8c-0.6,0-1,0.4-1,1v3h-6v-3
		c0-0.6-0.4-1-1-1h-8v-1v-1v-4c0-0.6-0.4-1-1-1h-5c-2.8,0-5,2.2-5,5v11c-1.7,0-3-1.3-3-3V28H2v13c0,2,1.2,3.8,3,4.6V58h2V46h1h1h8
		v11c0,0.6,0.4,1,1,1h3h1h1v-1V42v-1h3h8h3v1v15v1h1h1h3c0.6,0,1-0.4,1-1V46h8h1h1v12h2V45.6c1.8-0.8,3-2.5,3-4.6V28H56z M22,39h-2
		h-6v-6h-2v7c0,0.6,0.4,1,1,1h7c0.6,0,1,0.4,1,1v14h-2V45c0-0.6-0.4-1-1-1H9V33c0-1.7,1.3-3,3-3h4v3v1v2c0,0.6,0.4,1,1,1h8v2H22z
		 M42,44c-0.6,0-1,0.4-1,1v11h-2V42c0-0.6,0.4-1,1-1h7c0.6,0,1-0.4,1-1v-7h-2v6h-6h-2h-3v-2h8c0.6,0,1-0.4,1-1v-2v-1v-3h4
		c1.7,0,3,1.3,3,3v11H42z"/>
	<path class="st0" d="M21,12v3c0,0.4,0.3,0.8,0.7,0.9c0.1,0,0.2,0.1,0.3,0.1c0.3,0,0.6-0.1,0.8-0.4l2.7-3.6H33c1.7,0,3-1.3,3-3V5
		c0-1.7-1.3-3-3-3H21c-1.7,0-3,1.3-3,3v4C18,10.7,19.3,12,21,12z M20,5c0-0.6,0.4-1,1-1h12c0.6,0,1,0.4,1,1v4c0,0.6-0.4,1-1,1h-8
		c-0.3,0-0.6,0.1-0.8,0.4L23,12v-1c0-0.6-0.4-1-1-1h-1c-0.6,0-1-0.4-1-1V5z"/>
	<rect x="22" y="6" class="st0" width="10" height="2"/>
	<rect x="29" y="27" class="st0" width="6" height="2"/>
	<path class="st0" d="M28,23c-1.7,0-3,1.3-3,3v4c0,1.7,1.3,3,3,3h8c1.7,0,3-1.3,3-3v-0.7l1.8-2.7c0.2-0.3,0.2-0.7,0-1
		C40.7,25.2,40.4,25,40,25h-1.2c-0.4-1.2-1.5-2-2.8-2H28z M37,26c0,0.6,0.4,1,1,1h0.1l-1,1.4c0,0.2-0.1,0.4-0.1,0.6v1
		c0,0.6-0.4,1-1,1h-8c-0.6,0-1-0.4-1-1v-4c0-0.6,0.4-1,1-1h8C36.6,25,37,25.4,37,26z"/>
	<rect x="25" y="18" class="st0" width="2" height="2"/>
	<rect x="29" y="18" class="st0" width="2" height="2"/>
	<rect x="33" y="18" class="st0" width="2" height="2"/>
</g>
</svg>
