<?xml version="1.0" encoding="utf-8"?>
<!-- Generator: Adobe Illustrator 22.0.1, SVG Export Plug-In . SVG Version: 6.00 Build 0)  -->
<svg version="1.1" id="Layer_1" xmlns="http://www.w3.org/2000/svg" xmlns:xlink="http://www.w3.org/1999/xlink" x="0px" y="0px"
	 viewBox="0 0 60 60" style="enable-background:new 0 0 60 60;" xml:space="preserve">
<style type="text/css">
	.st0{fill:#237DEB;}
</style>
<g>
	<path class="st0" d="M53,32h-0.5c1-1.1,1.5-2.5,1.5-4c0-3.3-2.7-6-6-6s-6,2.7-6,6c0,1.5,0.6,2.9,1.5,4H43c-1.1,0-2.2,0.4-3,1v-3
		c0-2.8-2.2-5-5-5h-0.5c1-1.1,1.5-2.5,1.5-4c0,0,0,0,0-0.1c0.1,0,0.3-0.1,0.4-0.2c3.5-3.5,3.5-9.2,0-12.7C34.9,6.5,33,5.6,31,5.4V5
		c0-1.7-1.3-3-3-3H2v2h26c0.6,0,1,0.4,1,1v0.4c-2,0.2-3.9,1.1-5.4,2.6c-3.5,3.5-3.5,9.2,0,12.7c0.1,0.1,0.2,0.2,0.4,0.2
		c0,0,0,0,0,0.1c0,1.5,0.6,2.9,1.5,4H25c-2.8,0-5,2.2-5,5v3c-0.8-0.6-1.9-1-3-1h-0.5c1-1.1,1.5-2.5,1.5-4c0-3.3-2.7-6-6-6
		s-6,2.7-6,6c0,1.5,0.6,2.9,1.5,4H7c-2.8,0-5,2.2-5,5v7c0,0.6,0.4,1,1,1h3v12c0,0.6,0.4,1,1,1h5h5c0.6,0,1-0.4,1-1V45h3
		c0.6,0,1-0.4,1-1v-6h2v12c0,0.6,0.4,1,1,1h5h5c0.6,0,1-0.4,1-1V38h2v6c0,0.6,0.4,1,1,1h3v12c0,0.6,0.4,1,1,1h5h5c0.6,0,1-0.4,1-1
		V45h3c0.6,0,1-0.4,1-1v-7C58,34.2,55.8,32,53,32z M44,28c0-2.2,1.8-4,4-4s4,1.8,4,4s-1.8,4-4,4S44,30.2,44,28z M31.2,27L30,29.1
		L28.8,27H31.2z M30,15c-1,0-1.9,0.2-2.7,0.6c-0.5-1.1-0.4-2.5,0.6-3.4c1.2-1.2,3.1-1.2,4.2,0c0.9,0.9,1.1,2.3,0.6,3.4
		C31.9,15.2,31,15,30,15z M24.4,18.5c-2.1-2.7-1.8-6.7,0.7-9.1c1.3-1.3,3.1-2,5-2s3.6,0.7,4.9,2c2.5,2.5,2.7,6.4,0.7,9.1l-0.3-0.3
		c-0.3-0.5-0.6-1-1-1.4c1.1-1.9,0.8-4.4-0.8-6c-1.9-1.9-5.1-1.9-7.1,0c-1.6,1.6-1.9,4.1-0.8,6c-0.4,0.4-0.7,0.9-1,1.4L24.4,18.5z
		 M26,21c0-0.6,0.2-1.2,0.4-1.7l0,0c0.1-0.3,0.3-0.5,0.5-0.8l0,0c0.2-0.2,0.4-0.5,0.7-0.6l0,0c0.7-0.5,1.5-0.8,2.4-0.8
		s1.7,0.3,2.4,0.8l0,0c0.3,0.2,0.5,0.4,0.7,0.6l0,0c0.2,0.2,0.4,0.5,0.5,0.8l0,0c0.2,0.5,0.4,1.1,0.4,1.7c0,2.2-1.8,4-4,4
		S26,23.2,26,21z M8,28c0-2.2,1.8-4,4-4s4,1.8,4,4s-1.8,4-4,4S8,30.2,8,28z M20,43h-2v-6h-2v19h-3V45h-2v11H8V37H6v6H4v-6
		c0-1.7,1.3-3,3-3h10c1.7,0,3,1.3,3,3V43z M34,30v19h-3V38h-2v11h-3V30h-2v6h-2v-6c0-1.7,1.3-3,3-3h1.4l2.7,4.5
		c0.2,0.3,0.5,0.5,0.9,0.5s0.7-0.2,0.9-0.5l2.7-4.5H35c1.7,0,3,1.3,3,3v6h-2v-6H34z M56,43h-2v-6h-2v19h-3V45h-2v11h-3V37h-2v6h-2
		v-6c0-1.7,1.3-3,3-3h10c1.7,0,3,1.3,3,3V43z"/>
	<rect x="19" y="6" class="st0" width="2" height="2"/>
	<rect x="15" y="6" class="st0" width="2" height="2"/>
	<rect x="11" y="6" class="st0" width="2" height="2"/>
</g>
</svg>
