<?xml version="1.0" encoding="utf-8"?>
<!-- Generator: Adobe Illustrator 22.0.1, SVG Export Plug-In . SVG Version: 6.00 Build 0)  -->
<svg version="1.1" id="Layer_1" xmlns="http://www.w3.org/2000/svg" xmlns:xlink="http://www.w3.org/1999/xlink" x="0px" y="0px"
	 viewBox="0 0 60 60" style="enable-background:new 0 0 60 60;" xml:space="preserve">
<style type="text/css">
	.st0{fill:#237DEB;}
</style>
<g>
	<path class="st0" d="M26,18c3.3,0,6-2.7,6-6s-2.7-6-6-6s-6,2.7-6,6S22.7,18,26,18z M26,8c2.2,0,4,1.8,4,4s-1.8,4-4,4s-4-1.8-4-4
		S23.8,8,26,8z"/>
	<path class="st0" d="M9.6,16l3.7,3.7c0.2,0.2,0.4,0.3,0.7,0.3c0.1,0,0.3,0,0.4-0.1c0.4-0.2,0.6-0.5,0.6-0.9v-3c1.7,0,3-1.3,3-3V9
		c0-1.7-1.3-3-3-3H5C3.3,6,2,7.3,2,9v4c0,1.7,1.3,3,3,3H9.6z M4,13V9c0-0.6,0.4-1,1-1h10c0.6,0,1,0.4,1,1v4c0,0.6-0.4,1-1,1h-1
		c-0.6,0-1,0.4-1,1v1.6l-2.3-2.3C10.5,14.1,10.3,14,10,14H5C4.4,14,4,13.6,4,13z"/>
	<rect x="6" y="10" class="st0" width="8" height="2"/>
	<path class="st0" d="M53,2H40c-2.8,0-5,2.2-5,5v11.5L29.9,20H20c-2.8,0-5,2.2-5,5v8h-4v2h29v-2h-7v-6.3l2.1-0.9
		c0.4,2.4,2.4,4.2,4.9,4.2h13c2.8,0,5-2.2,5-5V7C58,4.2,55.8,2,53,2z M31.6,25.1C31.2,25.2,31,25.6,31,26v7h-4v-7h1v-2h-4v2h1v7h-4
		v-7h-2v7h-2v-8c0-1.7,1.3-3,3-3h10c0.1,0,0.2,0,0.3,0l7-2c0.2-0.1,0.4-0.2,0.6-0.4l3.3-5l1.5,1.5l-4.3,6.1L31.6,25.1z M56,25
		c0,1.7-1.3,3-3,3H40c-1.7,0-3-1.3-3-3h-0.1l2.5-1.1c0.2-0.1,0.3-0.2,0.4-0.3l5-7c0.3-0.4,0.2-0.9-0.1-1.3l-3-3
		c-0.2-0.2-0.5-0.3-0.8-0.3s-0.6,0.2-0.7,0.4L37,17.2V7c0-1.7,1.3-3,3-3h13c1.7,0,3,1.3,3,3V25z"/>
	<rect x="40" y="7" class="st0" width="13" height="2"/>
	<rect x="45" y="11" class="st0" width="8" height="2"/>
	<rect x="47" y="15" class="st0" width="6" height="2"/>
	<rect x="45" y="19" class="st0" width="8" height="2"/>
	<rect x="42" y="23" class="st0" width="11" height="2"/>
	<path class="st0" d="M33,51h-6c-2.8,0-5,2.2-5,5v2h2v-2c0-1.7,1.3-3,3-3h6c1.7,0,3,1.3,3,3v2h2v-2C38,53.2,35.8,51,33,51z"/>
	<path class="st0" d="M51,51h-6c-2.8,0-5,2.2-5,5v2h2v-2c0-1.7,1.3-3,3-3h6c1.7,0,3,1.3,3,3v2h2v-2C56,53.2,53.8,51,51,51z"/>
	<path class="st0" d="M15,51H9c-2.8,0-5,2.2-5,5v2h2v-2c0-1.7,1.3-3,3-3h6c1.7,0,3,1.3,3,3v2h2v-2C20,53.2,17.8,51,15,51z"/>
	<rect x="42" y="33" class="st0" width="2" height="2"/>
	<path class="st0" d="M8,45c0,2.2,1.8,4,4,4s4-1.8,4-4v-1h2v-2h-2.1c-0.4-1.7-2-3-3.9-3c-2.2,0-4,1.8-4,4V45z M14,45
		c0,1.1-0.9,2-2,2s-2-0.9-2-2v-1h4V45z M12,41c0.7,0,1.4,0.4,1.7,1h-3.4C10.6,41.4,11.3,41,12,41z"/>
	<path class="st0" d="M30,49c2.2,0,4-1.8,4-4v-1h2v-2h-2.1c-0.4-1.7-2-3-3.9-3c-2.2,0-4,1.8-4,4v2C26,47.2,27.8,49,30,49z M32,45
		c0,1.1-0.9,2-2,2s-2-0.9-2-2v-1h4V45z M30,41c0.7,0,1.4,0.4,1.7,1h-3.4C28.6,41.4,29.3,41,30,41z"/>
	<path class="st0" d="M44,45c0,2.2,1.8,4,4,4s4-1.8,4-4v-1h2v-2h-2.1c-0.4-1.7-2-3-3.9-3c-2.2,0-4,1.8-4,4V45z M50,45
		c0,1.1-0.9,2-2,2s-2-0.9-2-2v-1h4V45z M48,41c0.7,0,1.4,0.4,1.7,1h-3.4C46.6,41.4,47.3,41,48,41z"/>
</g>
</svg>
