<?xml version="1.0" encoding="utf-8"?>
<!-- Generator: Adobe Illustrator 22.0.1, SVG Export Plug-In . SVG Version: 6.00 Build 0)  -->
<svg version="1.1" id="Layer_1" xmlns="http://www.w3.org/2000/svg" xmlns:xlink="http://www.w3.org/1999/xlink" x="0px" y="0px"
	 viewBox="0 0 60 60" style="enable-background:new 0 0 60 60;" xml:space="preserve">
<style type="text/css">
	.st0{fill:#237DEB;}
</style>
<g>
	<path class="st0" d="M41,14.5c3.3,0,6-2.7,6-6s-2.7-6-6-6s-6,2.7-6,6S37.7,14.5,41,14.5z M41,4.5c2.2,0,4,1.8,4,4s-1.8,4-4,4
		c-0.1,0-0.2,0-0.3,0c0.8-0.7,1.3-1.8,1.3-3h-2c0,1-0.7,1.8-1.7,2c-0.8-0.7-1.3-1.8-1.3-3C37,6.3,38.8,4.5,41,4.5z"/>
	<path class="st0" d="M10,26.5c3.3,0,6-2.7,6-6s-2.7-6-6-6s-6,2.7-6,6S6.7,26.5,10,26.5z M10,16.5c2.2,0,4,1.8,4,4
		c0,1.2-0.5,2.2-1.3,3c-0.9-0.2-1.7-1-1.7-2H9c0,1.2,0.5,2.2,1.3,3c-0.1,0-0.2,0-0.3,0c-2.2,0-4-1.8-4-4S7.8,16.5,10,16.5z"/>
	<path class="st0" d="M58.3,3.6l-6-2c-0.3-0.1-0.6-0.1-0.9,0.1C51.2,1.9,51,2.2,51,2.5v8v5H37c-0.2,0-0.5,0.1-0.6,0.2l-6,5
		c-0.1,0.1-0.2,0.2-0.3,0.3l-2.8,5.7L21,29.4l-5.6-1.9c-0.1,0-0.2-0.1-0.3-0.1H7c-2.8,0-5,2.2-5,5v11c0,0.6,0.4,1,1,1h3v12H2v2h5h5
		h4c0.6,0,1-0.4,1-1v-5h2h5h7c0.6,0,1-0.4,1-1v-5h6h5c0.6,0,1-0.4,1-1v-5h6h5h3v-2h-2v-8c0-2.8-2.2-5-5-5h-4v-4h5c2.8,0,5-2.2,5-5
		v-6c0-0.6-0.4-1-1-1h-3V7.2l5.3-1.8C58.7,5.3,59,4.9,59,4.5S58.7,3.7,58.3,3.6z M42.5,17.5L42,18.8l-0.5-1.3H42.5z M16,50.5
		c-0.6,0-1,0.4-1,1v5h-2v-12h5v6H16z M20,50.5v-7c0-0.6-0.4-1-1-1h-7c-0.6,0-1,0.4-1,1v13H8v-23H6v9H4v-10c0-1.7,1.3-3,3-3h3v7h2v-7
		h2.8l5.8,1.9c0.2,0.1,0.5,0.1,0.7,0l6.2-2.7l0.6,0.9l0.3,0.5l-6.7,3.4l-6.7-1c-0.3,0-0.6,0-0.8,0.2c-0.2,0.2-0.3,0.5-0.3,0.8v5
		c0,0.6,0.4,1,1,1h5c1.7,0,3,1.3,3,3v8H20z M31,44.5c-0.6,0-1,0.4-1,1v5h-5v-8c0-2.8-2.2-5-5-5h-4v-2.8l5.9,0.8c0.2,0,0.4,0,0.6-0.1
		l8-4c0.1-0.1,0.3-0.2,0.4-0.3c0,0,0,0,0,0l3.9-5.9l2.3-1.7v21H31z M49,38.5h-5v-6h5V38.5z M55,16.5c0,1.7-1.3,3-3,3h-6
		c-0.6,0-1,0.4-1,1v6c0,0.6,0.4,1,1,1h5c1.7,0,3,1.3,3,3v8h-3v-7c0-0.6-0.4-1-1-1h-7c-0.6,0-1,0.4-1,1v8v5h-3v-23
		c0-0.4-0.2-0.7-0.6-0.9c-0.3-0.2-0.7-0.1-1,0.1l-4,3c-0.1,0.1-0.2,0.1-0.2,0.2L30,28.7l-0.8-1.3l2.6-5.3l5.6-4.6h2l1.7,4.4
		c0.2,0.4,0.5,0.6,0.9,0.6s0.8-0.2,0.9-0.6l1.7-4.4H52c0.6,0,1-0.4,1-1v-5h2V16.5z M53,5.1V3.9l1.8,0.6L53,5.1z"/>
	<rect x="26" y="6.5" class="st0" width="2" height="2"/>
	<rect x="22" y="6.5" class="st0" width="2" height="2"/>
	<rect x="18" y="6.5" class="st0" width="2" height="2"/>
</g>
</svg>
